<svg width="280" height="94" viewBox="0 0 280 94" fill="none" xmlns="http://www.w3.org/2000/svg">
<path d="M116.008 14.432C116.008 15.6267 115.827 16.6187 115.464 17.408C115.101 18.1973 114.536 18.912 113.768 19.552L116.424 28H110.504L108.52 20.832H107.784V28H102.408V8.128H109.832C111.965 8.128 113.523 8.62933 114.504 9.632C115.507 10.6347 116.008 12.2347 116.008 14.432ZM108.616 17.472C109.171 17.472 109.565 17.312 109.8 16.992C110.035 16.672 110.152 16.096 110.152 15.264C110.152 14.4107 110.035 13.824 109.8 13.504C109.565 13.1627 109.181 12.992 108.648 12.992H107.784V17.472H108.616ZM124.173 16.864C123.618 16.864 123.255 17.056 123.085 17.44C122.914 17.8027 122.829 18.368 122.829 19.136H125.613V18.368C125.613 17.3653 125.133 16.864 124.173 16.864ZM124.301 12.288C126.498 12.288 128.066 12.8213 129.005 13.888C129.965 14.9333 130.445 16.4373 130.445 18.4C130.445 18.656 130.37 19.808 130.221 21.856H122.925C122.925 23.456 123.661 24.256 125.133 24.256C125.837 24.256 127.213 24.0107 129.261 23.52L129.709 27.488C127.917 28.0427 126.125 28.32 124.333 28.32C122.135 28.32 120.45 27.6053 119.277 26.176C118.103 24.7253 117.517 22.7627 117.517 20.288C117.517 14.9547 119.778 12.288 124.301 12.288ZM145.497 28.192L143.353 28.32C141.71 28.32 140.707 27.776 140.345 26.688H140.185C139.481 27.776 138.403 28.32 136.953 28.32C135.033 28.32 133.678 27.648 132.889 26.304C132.121 24.96 131.737 22.9653 131.737 20.32C131.737 17.6533 132.174 15.648 133.049 14.304C133.923 12.96 135.182 12.288 136.825 12.288C137.955 12.288 138.83 12.5547 139.449 13.088V7.488H144.793V23.296C144.793 23.7013 144.878 23.9787 145.049 24.128C145.219 24.256 145.529 24.32 145.977 24.32L145.497 28.192ZM138.233 16.8C137.785 16.8 137.486 17.0773 137.337 17.632C137.187 18.1653 137.113 18.944 137.113 19.968C137.113 20.9707 137.123 21.6533 137.145 22.016C137.166 22.3787 137.209 22.752 137.273 23.136C137.358 23.4987 137.475 23.7547 137.625 23.904C137.795 24.032 138.062 24.096 138.425 24.096C138.809 24.096 139.203 24 139.609 23.808V17.184C139.161 16.928 138.702 16.8 138.233 16.8ZM160.747 28.192L158.603 28.32C156.96 28.32 155.957 27.776 155.595 26.688H155.435C154.731 27.776 153.653 28.32 152.203 28.32C150.283 28.32 148.928 27.648 148.139 26.304C147.371 24.96 146.987 22.9653 146.987 20.32C146.987 17.6533 147.424 15.648 148.299 14.304C149.173 12.96 150.432 12.288 152.075 12.288C153.205 12.288 154.08 12.5547 154.699 13.088V7.488H160.043V23.296C160.043 23.7013 160.128 23.9787 160.299 24.128C160.469 24.256 160.779 24.32 161.227 24.32L160.747 28.192ZM153.483 16.8C153.035 16.8 152.736 17.0773 152.587 17.632C152.437 18.1653 152.363 18.944 152.363 19.968C152.363 20.9707 152.373 21.6533 152.395 22.016C152.416 22.3787 152.459 22.752 152.523 23.136C152.608 23.4987 152.725 23.7547 152.875 23.904C153.045 24.032 153.312 24.096 153.675 24.096C154.059 24.096 154.453 24 154.859 23.808V17.184C154.411 16.928 153.952 16.8 153.483 16.8ZM167.837 28H162.557V12.832H167.837V28ZM162.973 11.616C162.525 11.232 162.301 10.6133 162.301 9.76C162.301 8.90667 162.525 8.27733 162.973 7.872C163.421 7.46667 164.157 7.264 165.181 7.264C166.205 7.264 166.941 7.46667 167.389 7.872C167.837 8.27733 168.061 8.90667 168.061 9.76C168.061 10.592 167.837 11.2107 167.389 11.616C166.941 12 166.205 12.192 165.181 12.192C164.157 12.192 163.421 12 162.973 11.616ZM178.506 28.032C176.928 28.224 175.552 28.32 174.378 28.32C173.226 28.32 172.32 28.0213 171.658 27.424C171.018 26.8053 170.698 25.7493 170.698 24.256V16.832H169.162V12.864H170.954L171.242 9.92H176.074V12.864H178.922L178.698 16.832H176.042V23.2C176.042 23.648 176.256 23.872 176.682 23.872C176.725 23.872 177.386 23.84 178.666 23.776L178.506 28.032ZM200.789 14.432C200.789 15.6267 200.608 16.6187 200.245 17.408C199.883 18.1973 199.317 18.912 198.549 19.552L201.205 28H195.285L193.301 20.832H192.565V28H187.189V8.128H194.613C196.747 8.128 198.304 8.62933 199.285 9.632C200.288 10.6347 200.789 12.2347 200.789 14.432ZM193.397 17.472C193.952 17.472 194.347 17.312 194.581 16.992C194.816 16.672 194.933 16.096 194.933 15.264C194.933 14.4107 194.816 13.824 194.581 13.504C194.347 13.1627 193.963 12.992 193.429 12.992H192.565V17.472H193.397ZM214.106 16.672L213.946 23.296C213.946 23.7013 214.042 23.9787 214.234 24.128C214.447 24.256 214.799 24.32 215.29 24.32L214.81 28.192C213.572 28.2773 212.89 28.32 212.762 28.32C211.183 28.32 210.18 27.776 209.754 26.688H209.594C208.804 27.776 207.588 28.32 205.946 28.32C204.687 28.32 203.716 27.9147 203.034 27.104C202.372 26.2933 202.042 25.184 202.042 23.776C202.042 22.0053 202.586 20.7787 203.674 20.096C204.783 19.4133 206.522 18.9653 208.89 18.752V17.984C208.89 17.3867 208.591 17.088 207.994 17.088C206.97 17.088 205.37 17.3973 203.194 18.016L202.394 13.344C205.124 12.64 207.396 12.288 209.21 12.288C211.023 12.288 212.292 12.64 213.018 13.344C213.743 14.048 214.106 15.1573 214.106 16.672ZM207.93 24.576C208.719 24.576 209.114 24.16 209.114 23.328V21.76C208.324 21.8667 207.759 22.0373 207.418 22.272C207.098 22.4853 206.938 22.8587 206.938 23.392C206.938 24.1813 207.268 24.576 207.93 24.576ZM221.835 13.792C223.009 12.7893 224.299 12.288 225.707 12.288C227.115 12.288 228.097 12.6187 228.651 13.28C229.227 13.92 229.515 14.8907 229.515 16.192V28H224.075V18.016C224.075 17.4827 223.841 17.216 223.371 17.216C222.774 17.216 222.273 17.3653 221.867 17.664V28H216.491V12.672H221.387L221.707 13.792H221.835ZM244.645 28H238.725L236.773 22.112H236.645V28H231.429V7.488H236.709V18.784H236.837L239.173 12.672H244.773L241.541 20.32L244.645 28ZM251.985 16.864C251.43 16.864 251.068 17.056 250.897 17.44C250.726 17.8027 250.641 18.368 250.641 19.136H253.425V18.368C253.425 17.3653 252.945 16.864 251.985 16.864ZM252.113 12.288C254.31 12.288 255.878 12.8213 256.817 13.888C257.777 14.9333 258.257 16.4373 258.257 18.4C258.257 18.656 258.182 19.808 258.033 21.856H250.737C250.737 23.456 251.473 24.256 252.945 24.256C253.649 24.256 255.025 24.0107 257.073 23.52L257.521 27.488C255.729 28.0427 253.937 28.32 252.145 28.32C249.948 28.32 248.262 27.6053 247.089 26.176C245.916 24.7253 245.329 22.7627 245.329 20.288C245.329 14.9547 247.59 12.288 252.113 12.288ZM265.053 19.392V28H259.741V12.672H264.413L264.733 13.6H264.861C265.352 13.0453 265.843 12.6933 266.333 12.544C266.845 12.3733 267.667 12.288 268.797 12.288L268.573 17.408H267.101C266.269 17.408 265.715 17.536 265.437 17.792C265.181 18.048 265.053 18.5813 265.053 19.392Z" fill="#333355"/>
<circle cx="46" cy="48" r="44.5" fill="white" stroke="#333355" stroke-width="3"/>
<path d="M43.1716 13.8284L15.8284 41.1716C13.3086 43.6914 15.0932 48 18.6569 48H29L43.3695 35.4563C44.8765 34.1408 47.1235 34.1408 48.6305 35.4563L63 48H73.3444C76.908 48 78.6914 43.6914 76.1716 41.1716L48.8284 13.8284C47.2663 12.2663 44.7337 12.2663 43.1716 13.8284Z" fill="#FF5B5B"/>
<path d="M16.8891 68.2322L44.2322 40.8891C45.2085 39.9128 46.7915 39.9128 47.7678 40.8891L75.1109 68.2322C76.6865 69.8079 75.5707 72.5 73.3444 72.5H63.5626L49.6169 60.3263C47.5449 58.5175 44.4551 58.5175 42.3831 60.3263L28.4374 72.5H18.6569C16.4296 72.5 15.3142 69.8071 16.8891 68.2322Z" fill="#F88888" stroke="#F88888" stroke-width="3"/>
</svg>
